<svg width="30" height="34" viewBox="0 0 30 34" fill="none" xmlns="http://www.w3.org/2000/svg">
<path fill-rule="evenodd" clip-rule="evenodd" d="M20.2202 5.42786C21.4596 3.99138 22.2951 1.99066 22.0665 0C20.2804 0.0679997 18.1196 1.14094 16.8389 2.57572C15.6889 3.849 14.685 5.8835 14.9549 7.83507C16.9472 7.98295 18.9808 6.86602 20.2202 5.42786ZM24.688 18.0624C24.7378 23.2082 29.3981 24.92 29.4497 24.9421C29.4119 25.0628 28.7053 27.3811 26.9949 29.7781C25.5148 31.8487 23.9797 33.9108 21.5611 33.955C19.1854 33.9975 18.4204 32.6053 15.7026 32.6053C12.9866 32.6053 12.1374 33.9107 9.88888 33.9974C7.55444 34.0807 5.77525 31.7572 4.28485 29.6934C1.2353 25.4724 -1.09398 17.7651 2.03465 12.5632C3.58865 9.98092 6.36487 8.3432 9.38004 8.3024C11.6715 8.2599 13.8358 9.77994 15.2368 9.77994C16.6378 9.77994 19.2679 7.95246 22.0321 8.22106C23.189 8.26696 26.4379 8.66801 28.5231 11.5936C28.3547 11.6939 24.6467 13.7615 24.688 18.0624Z" fill="black"/>
</svg>
