<svg width="35" height="35" viewBox="0 0 35 35" fill="none" xmlns="http://www.w3.org/2000/svg">
<path d="M31.0531 4.24946C26.7467 6.03306 8.2814 13.6816 3.17945 15.7662C-0.242152 17.1015 1.7609 18.3534 1.7609 18.3534C1.7609 18.3534 4.68165 19.3548 7.18555 20.1059C9.6891 20.857 11.0243 20.0226 11.0243 20.0226L22.7913 12.0944C26.9641 9.25691 25.9627 11.5935 24.961 12.5952C22.7914 14.7652 19.2028 18.1865 16.1984 20.9406C14.8631 22.1089 15.5306 23.1103 16.1151 23.6111C18.2847 25.4472 24.2103 29.2027 24.5438 29.453C26.3068 30.7011 29.7746 32.4976 30.302 28.7019L32.3884 15.5996C33.0562 11.1767 33.7236 7.08726 33.8069 5.91896C34.0575 3.08116 31.0531 4.24946 31.0531 4.24946Z" fill="#1B92D1"/>
</svg>
