<svg width="29" height="29" viewBox="0 0 29 29" fill="none" xmlns="http://www.w3.org/2000/svg">
<rect width="28.6607" height="28.6607" rx="14.3304" fill="white"/>
<g clip-path="url(#clip0_2062_14930)">
<path d="M20.087 8.71756C18.0299 9.56955 9.20944 13.2231 6.77235 14.2189C5.13792 14.8567 6.09474 15.4547 6.09474 15.4547C6.09474 15.4547 7.48992 15.933 8.68598 16.2918C9.88187 16.6506 10.5197 16.252 10.5197 16.252L16.1405 12.4649C18.1337 11.1095 17.6554 12.2257 17.1769 12.7041C16.1405 13.7407 14.4264 15.375 12.9912 16.6906C12.3534 17.2486 12.6722 17.727 12.9514 17.9662C13.9878 18.8433 16.8183 20.6372 16.9776 20.7567C17.8198 21.3529 19.4763 22.2111 19.7282 20.3979L20.7248 14.1393C21.0438 12.0265 21.3626 10.0731 21.4024 9.51504C21.5221 8.15949 20.087 8.71756 20.087 8.71756Z" fill="#1B92D1"/>
</g>
<defs>
<clipPath id="clip0_2062_14930">
<rect width="16.7187" height="16.7187" fill="white" transform="translate(5.25391 6.6875)"/>
</clipPath>
</defs>
</svg>
