<svg width="16" height="16" viewBox="0 0 16 16" fill="none" xmlns="http://www.w3.org/2000/svg">
<path d="M5.6156 5.61621C8.15147 5.8163 10.183 7.84793 10.3832 10.3838C10.3912 10.5197 10.3998 10.6639 10.3998 10.7998C10.3998 13.6718 8.07158 15.9999 5.19958 16C2.32751 16 -0.000610352 13.6719 -0.000610352 10.7998C-0.00046784 7.92786 2.3276 5.59961 5.19958 5.59961C5.33554 5.59962 5.47965 5.60821 5.6156 5.61621ZM4.49548 10.0957L3.19958 10.7998L4.49548 11.5039L5.19958 12.7998L5.90369 11.5039L7.19958 10.7998L5.90369 10.0957L5.19958 8.7998L4.49548 10.0957ZM10.8002 0C13.6721 0.000184494 16.0004 2.32824 16.0004 5.2002C16.0003 7.80823 14.0794 9.95993 11.5834 10.3359V10.2881C11.3353 7.18416 8.81581 4.66409 5.68787 4.41602H5.66345C6.03948 1.91998 8.19213 0 10.8002 0Z" fill="white"/>
</svg>
