<svg width="17" height="16" viewBox="0 0 17 16" fill="none" xmlns="http://www.w3.org/2000/svg">
<path d="M6.11572 5.61621C8.6516 5.8163 10.6832 7.84793 10.8833 10.3838C10.8913 10.5197 10.8999 10.6639 10.8999 10.7998C10.8999 13.6718 8.5717 15.9999 5.69971 16C2.82764 16 0.499512 13.6719 0.499512 10.7998C0.499654 7.92786 2.82772 5.59961 5.69971 5.59961C5.83566 5.59962 5.97977 5.60821 6.11572 5.61621ZM4.99561 10.0957L3.69971 10.7998L4.99561 11.5039L5.69971 12.7998L6.40381 11.5039L7.69971 10.7998L6.40381 10.0957L5.69971 8.7998L4.99561 10.0957ZM11.3003 0C14.1722 0.000184494 16.5005 2.32824 16.5005 5.2002C16.5005 7.80823 14.5795 9.95993 12.0835 10.3359V10.2881C11.8354 7.18416 9.31593 4.66409 6.18799 4.41602H6.16357C6.53961 1.91998 8.69225 0 11.3003 0Z" fill="#0036AE"/>
</svg>
