<svg width="139" height="203" viewBox="0 0 139 203" fill="none" xmlns="http://www.w3.org/2000/svg">
<path d="M45.5463 90.0874C43.7046 75.2423 36.2821 60.3972 33.9242 45.9567C31.6002 31.7243 22.302 19.4336 19.5255 14.7736C18.4522 12.9722 14.9074 15.6386 13.4843 18.4291C6.23011 32.6529 7.42902 50.9655 3.7038 64.4573C2.79637 67.7437 1.84816 70.4985 1.83421 70.5404C-3.91558 87.7898 22.2741 25.9632 26.9202 12.9319C29.1235 6.7522 37.1471 4.53272 44.0953 1.74229C53.806 0.793539 62.261 1.71438 68.2884 4.03044C71.5532 5.42566 75.2365 7.26734 79.0315 9.16484" stroke="black" stroke-width="2" stroke-linecap="round"/>
<path d="M59.4975 90.0879C61.3392 90.0879 65.9713 92.8504 72.473 98.4173C77.9876 103.139 79.0305 112.356 78.1097 122.108C76.6995 137.043 64.1854 148.631 55.3537 160.728C48.6025 169.975 39.9923 175.643 36.7275 176.591C16.8854 182.357 94.7685 171.903 111.986 180.275C116.199 183.065 119.882 186.748 123.161 190.027C126.44 193.306 129.202 196.069 137.63 201.705" stroke="black" stroke-width="2" stroke-linecap="round"/>
</svg>
