<svg width="251" height="128" viewBox="0 0 251 128" fill="none" xmlns="http://www.w3.org/2000/svg">
<path d="M185.099 45.7891C174.021 45.7891 142.462 49.4724 112.646 61.555C97.9177 67.5234 63.5482 87.4781 40.0388 99.2537C28.6741 104.946 15.8876 109.02 4.68402 110.904C0.12958 111.669 0.930888 91.4963 1.85173 78.4092C2.76373 65.4477 7.4326 108.992 9.28823 117.35C10.223 121.103 11.1439 123.865 17.1433 125.288C23.1427 126.712 34.1928 126.712 45.5778 126.712" stroke="black" stroke-width="2" stroke-linecap="round"/>
<path d="M215.794 20.6757C222.24 13.2811 238.09 2.09144 242.736 1.60311C258.408 -0.0441605 244.647 33.6233 238.606 59.1697C236.276 72.6336 235.327 92.1666 234.867 113.081C234.406 121.103 233.485 123.866 232.537 126.712" stroke="black" stroke-width="2" stroke-linecap="round"/>
</svg>
