<svg width="2194" height="1656" viewBox="0 0 2194 1656" fill="none" xmlns="http://www.w3.org/2000/svg">
<g clip-path="url(#clip0_2042_5369)">
<path opacity="0.3" d="M-18.7037 1211.63C-24.7193 1194.72 -42.215 937.96 55.7097 711.786C143.644 509.029 388.286 369.973 706.312 469.654C1047.07 576.497 1327.57 557.499 1547.18 487.799C1763.89 418.819 1896.03 273.884 1952.49 184.823C2075.1 -7.71091 2300.57 74.9862 2253.81 314.468C2231.56 425.929 2142.39 467.112 1982.93 497.659C1816.25 529.589 1564.95 534.902 1226.59 626.807C900.292 715.63 540.611 877.742 348.396 1052.01C143.849 1237.6 32.4017 1359.25 -18.7037 1211.63Z" fill="#E2E1E9"/>
</g>
<defs>
<clipPath id="clip0_2042_5369">
<rect width="2194" height="1656" fill="white"/>
</clipPath>
</defs>
</svg>
