<svg width="10" height="11" viewBox="0 0 10 11" fill="none" xmlns="http://www.w3.org/2000/svg">
<path d="M6.37964 0C6.86313 0 7.25538 0.391562 7.25562 0.875V1.00098C7.25538 1.48441 6.86313 1.87598 6.37964 1.87598H5.87964V2.5332C6.16221 2.56779 6.44142 2.63098 6.71265 2.72363C7.2466 2.90608 7.73665 3.19608 8.15308 3.57422L8.56323 3.16504L8.29761 2.89941C8.2618 2.86479 8.23327 2.82312 8.21362 2.77734C8.19398 2.73155 8.18376 2.68167 8.18335 2.63184C8.18301 2.58224 8.1929 2.53321 8.21167 2.4873C8.23056 2.44119 8.25845 2.3985 8.2937 2.36328C8.32885 2.32826 8.37083 2.30101 8.41675 2.28223C8.46288 2.26338 8.51242 2.25345 8.56226 2.25391C8.61195 2.25438 8.66112 2.26458 8.70679 2.28418C8.75248 2.30383 8.79429 2.3324 8.82886 2.36816L9.89038 3.42969C9.94273 3.48224 9.9785 3.54932 9.99292 3.62207C10.0073 3.69476 9.99974 3.7704 9.97144 3.83887C9.94302 3.90743 9.89445 3.96654 9.83276 4.00781C9.77121 4.04894 9.69878 4.07112 9.62476 4.07129C9.57553 4.07135 9.52667 4.06084 9.4812 4.04199C9.43568 4.0231 9.39388 3.99589 9.35913 3.96094L9.09351 3.69531L8.66089 4.12695C8.95063 4.50693 9.17326 4.93523 9.31714 5.39355C9.51119 6.01175 9.55706 6.66746 9.45093 7.30664C9.34476 7.94569 9.08915 8.55102 8.70581 9.07324C8.32248 9.59533 7.82168 10.0198 7.2439 10.3125C6.66589 10.6053 6.0266 10.7587 5.37866 10.7588C4.53495 10.7603 3.71093 10.5018 3.01929 10.0186C2.93769 9.96165 2.88251 9.87429 2.86499 9.77637C2.8475 9.67843 2.86969 9.57774 2.92651 9.49609C2.98345 9.41441 3.07068 9.35832 3.1687 9.34082C3.2666 9.32344 3.36739 9.34548 3.44897 9.40234C3.95547 9.75489 4.54892 9.9619 5.16479 10.001C5.78056 10.04 6.39522 9.90963 6.94214 9.62402C7.48914 9.33831 7.94755 8.90769 8.26733 8.37988C8.58702 7.85213 8.75659 7.24691 8.75659 6.62988C8.75656 6.01282 8.58709 5.40764 8.26733 4.87988C7.94755 4.35208 7.48914 3.92146 6.94214 3.63574C6.39526 3.35019 5.7805 3.21973 5.16479 3.25879C4.54899 3.29786 3.95543 3.50494 3.44897 3.85742C3.40862 3.88555 3.36322 3.90641 3.31519 3.91699C3.26713 3.92754 3.21713 3.92755 3.1687 3.91895C3.12023 3.91029 3.07347 3.89274 3.03198 3.86621C2.99053 3.83968 2.95468 3.80501 2.92651 3.76465C2.89832 3.7242 2.87849 3.67804 2.86792 3.62988C2.85742 3.58183 2.85634 3.53183 2.86499 3.4834C2.88256 3.38573 2.93794 3.29904 3.01929 3.24219C3.55105 2.87202 4.16282 2.63204 4.80444 2.54199C4.82911 2.53853 4.85396 2.53621 4.87866 2.5332V1.87598H4.37866C3.89517 1.87598 3.50292 1.48441 3.50269 1.00098V0.875C3.50292 0.391562 3.89517 0 4.37866 0H6.37964ZM5.37866 3.75293C5.75718 3.7502 6.13291 3.82227 6.48315 3.96582C6.83348 4.10945 7.15195 4.32211 7.41968 4.58984C7.68721 4.85744 7.89914 5.1753 8.04272 5.52539C8.18634 5.87566 8.2593 6.25133 8.25659 6.62988C8.25659 7.19896 8.0874 7.75534 7.77124 8.22852C7.45512 8.70162 7.0059 9.0703 6.48022 9.28809C5.9546 9.50581 5.37612 9.56305 4.81812 9.45215C4.26008 9.34115 3.74685 9.06731 3.34448 8.66504C3.2936 8.61416 3.24471 8.56111 3.198 8.50684H0.374756C0.275297 8.50678 0.179463 8.46682 0.109131 8.39648C0.0389414 8.32613 -0.000244141 8.23025 -0.000244141 8.13086C-0.000137403 8.03165 0.0390891 7.93646 0.109131 7.86621C0.179463 7.79588 0.275297 7.75592 0.374756 7.75586H2.73218C2.65524 7.57497 2.59611 7.38611 2.55737 7.19141C2.54506 7.12949 2.53529 7.0672 2.5271 7.00488H0.875732C0.776239 7.00488 0.680481 6.96583 0.610107 6.89551C0.539725 6.82513 0.499756 6.72942 0.499756 6.62988C0.499801 6.53041 0.539765 6.4346 0.610107 6.36426C0.680465 6.29404 0.77632 6.25488 0.875732 6.25488H2.52808C2.5607 6.00698 2.62378 5.7628 2.72046 5.5293C2.72397 5.52081 2.72859 5.51235 2.73218 5.50391H0.374756C0.275297 5.50385 0.179463 5.46486 0.109131 5.39453C0.0388104 5.32417 -0.000228215 5.22838 -0.000244141 5.12891C-0.000244141 5.02943 0.0388337 4.93365 0.109131 4.86328C0.179463 4.79295 0.275297 4.75396 0.374756 4.75391H3.19995C3.3688 4.55779 3.56254 4.38265 3.78003 4.2373C4.25311 3.92121 4.8097 3.753 5.37866 3.75293ZM6.40894 5.37988C6.35895 5.37712 6.30861 5.3845 6.26147 5.40137C6.2144 5.41825 6.17136 5.44469 6.13452 5.47852L5.49878 6.0293C5.45982 6.01686 5.41938 6.0087 5.37866 6.00488C5.25513 6.00495 5.13472 6.04175 5.03198 6.11035C4.92918 6.17904 4.84887 6.27641 4.80151 6.39062C4.75419 6.50487 4.74129 6.63066 4.76538 6.75195C4.78949 6.87317 4.84894 6.98483 4.93628 7.07227C5.02365 7.15964 5.13543 7.21897 5.25659 7.24316C5.37778 7.26727 5.50373 7.25521 5.61792 7.20801C5.73222 7.16067 5.83044 7.0804 5.89917 6.97754C5.96788 6.87469 6.00464 6.75358 6.00464 6.62988C6.00457 6.61595 5.99683 6.60428 5.99683 6.59082L6.62573 6.04492C6.66449 6.01325 6.69704 5.9749 6.72046 5.93066C6.74393 5.88626 6.75813 5.83715 6.76245 5.78711C6.76677 5.73707 6.76039 5.68644 6.74487 5.63867C6.72935 5.59101 6.70446 5.54667 6.67163 5.50879C6.63877 5.47094 6.59846 5.44007 6.55347 5.41797C6.50843 5.39588 6.45902 5.38271 6.40894 5.37988Z" fill="#F8E2C6"/>
</svg>
