<svg width="28" height="24" viewBox="0 0 28 24" fill="none" xmlns="http://www.w3.org/2000/svg">
<path fill-rule="evenodd" clip-rule="evenodd" d="M20.5857 0C22.3737 0 24.0937 0.706667 25.359 1.97467C26.6257 3.24 27.3337 4.94667 27.3337 6.73333V17.2667C27.3337 20.9867 24.307 24 20.5857 24H7.41366C3.69233 24 0.666992 20.9867 0.666992 17.2667V6.73333C0.666992 3.01333 3.67899 0 7.41366 0H20.5857ZM22.707 8.72L22.8137 8.61333C23.1323 8.22667 23.1323 7.66667 22.799 7.28C22.6137 7.08133 22.359 6.96 22.0937 6.93333C21.8137 6.91867 21.547 7.01333 21.3457 7.2L15.3337 12C14.5603 12.6413 13.4523 12.6413 12.667 12L6.66699 7.2C6.25233 6.89333 5.67899 6.93333 5.33366 7.29333C4.97366 7.65333 4.93366 8.22667 5.23899 8.62667L5.41366 8.8L11.4803 13.5333C12.227 14.12 13.1323 14.44 14.0803 14.44C15.0257 14.44 15.947 14.12 16.6923 13.5333L22.707 8.72Z" fill="#191825" fill-opacity="0.75"/>
</svg>
