<svg width="50" height="50" viewBox="0 0 50 50" fill="none" xmlns="http://www.w3.org/2000/svg">
<path fill-rule="evenodd" clip-rule="evenodd" d="M15.1606 41.752L21.1875 43.3511V41.26L21.6795 40.7681H25.1234V43.228V44.9499H21.4335L16.8826 42.982L15.1606 41.752Z" fill="#CDBDB2"/>
<path fill-rule="evenodd" clip-rule="evenodd" d="M34.8401 41.752L28.9363 43.3511V41.26L28.4443 40.7681H25.0005V43.228V44.9499H28.6903L33.241 42.982L34.8401 41.752Z" fill="#CDBDB2"/>
<path fill-rule="evenodd" clip-rule="evenodd" d="M21.679 37.2127L21.187 41.2714L21.8019 40.7795H28.1976L28.9356 41.2714L28.4436 37.2127L27.4596 36.5977L22.5398 36.7208L21.679 37.2127Z" fill="#393939"/>
<path fill-rule="evenodd" clip-rule="evenodd" d="M18.3591 9.78467L21.311 16.6724L22.6641 36.7207H27.4608L28.9367 16.6724L31.6426 9.78467H18.3591Z" fill="#F89C35"/>
<path fill-rule="evenodd" clip-rule="evenodd" d="M5.44386 24.9027L2 34.8652L10.6096 34.3733H16.1443V30.0685L15.8983 21.2129L14.6684 22.1969L5.44386 24.9027Z" fill="#F89D35"/>
<path fill-rule="evenodd" clip-rule="evenodd" d="M11.9614 26.0215L22.047 26.2675L20.9402 31.4333L16.1433 30.2033L11.9614 26.0215Z" fill="#D87C30"/>
<path fill-rule="evenodd" clip-rule="evenodd" d="M11.9614 26.146L16.1433 30.0818V34.0177L11.9614 26.146Z" fill="#EA8D3A"/>
<path fill-rule="evenodd" clip-rule="evenodd" d="M16.145 30.1919L21.0648 31.4218L22.6639 36.7107L21.5568 37.3256L16.145 34.1277V30.1919Z" fill="#F89D35"/>
<path fill-rule="evenodd" clip-rule="evenodd" d="M16.1446 34.1313L15.1606 41.757L21.6795 37.2063L16.1446 34.1313Z" fill="#EB8F35"/>
<path fill-rule="evenodd" clip-rule="evenodd" d="M22.0493 26.2524L22.6644 36.7071L20.8193 31.3568L22.0493 26.2524Z" fill="#EA8E3A"/>
<path fill-rule="evenodd" clip-rule="evenodd" d="M10.4866 34.2545L16.1443 34.1313L15.1604 41.757L10.4866 34.2545Z" fill="#D87C30"/>
<path fill-rule="evenodd" clip-rule="evenodd" d="M4.70589 45.0789L15.1604 41.758L10.4865 34.2554L2 34.8702L4.70589 45.0789Z" fill="#EB8F35"/>
<path fill-rule="evenodd" clip-rule="evenodd" d="M21.3091 16.6699L16.0204 21.0977L11.9614 26.0175L22.047 26.3866L21.3091 16.6699Z" fill="#E8821E"/>
<path fill-rule="evenodd" clip-rule="evenodd" d="M15.1606 41.7519L21.6795 37.2012L21.1875 41.137V43.3509L16.7597 42.4899L15.1606 41.7519Z" fill="#DFCEC3"/>
<path fill-rule="evenodd" clip-rule="evenodd" d="M34.8401 41.7519L28.4443 37.2012L28.9363 41.137V43.3509L33.3641 42.4899L34.8401 41.7519Z" fill="#DFCEC3"/>
<path fill-rule="evenodd" clip-rule="evenodd" d="M19.342 28.4707L20.6951 31.2997L15.8981 30.0697L19.342 28.4707Z" fill="#393939"/>
<path fill-rule="evenodd" clip-rule="evenodd" d="M4.58228 4L21.3096 16.6684L18.4808 9.78065L4.58228 4Z" fill="#E88F35"/>
<path fill-rule="evenodd" clip-rule="evenodd" d="M4.58232 4L2.36841 10.7647L3.59836 18.1444L2.73739 18.6364L3.96734 19.7434L2.98338 20.6043L4.33633 21.8343L3.47536 22.5723L5.44328 25.0322L14.6679 22.2033C19.1777 18.5954 21.3916 16.7505 21.3096 16.6685C21.2276 16.5865 15.6519 12.3637 4.58232 4Z" fill="#8E5A30"/>
<path fill-rule="evenodd" clip-rule="evenodd" d="M44.5561 24.9027L48 34.8652L39.3903 34.3733H33.8557V30.0685L34.1017 21.2129L35.3316 22.1969L44.5561 24.9027Z" fill="#F89D35"/>
<path fill-rule="evenodd" clip-rule="evenodd" d="M38.0386 26.0215L27.953 26.2675L29.0598 31.4333L33.8567 30.2033L38.0386 26.0215Z" fill="#D87C30"/>
<path fill-rule="evenodd" clip-rule="evenodd" d="M38.0386 26.146L33.8568 30.0818V34.0177L38.0386 26.146Z" fill="#EA8D3A"/>
<path fill-rule="evenodd" clip-rule="evenodd" d="M33.855 30.1919L28.9352 31.4218L27.3361 36.7107L28.4432 37.3256L33.855 34.1277V30.1919Z" fill="#F89D35"/>
<path fill-rule="evenodd" clip-rule="evenodd" d="M33.8561 34.1313L34.8401 41.757L28.4444 37.3292L33.8561 34.1313Z" fill="#EB8F35"/>
<path fill-rule="evenodd" clip-rule="evenodd" d="M27.9514 26.2524L27.3364 36.7071L29.1814 31.3568L27.9514 26.2524Z" fill="#EA8E3A"/>
<path fill-rule="evenodd" clip-rule="evenodd" d="M39.5134 34.2545L33.8557 34.1313L34.8396 41.757L39.5134 34.2545Z" fill="#D87C30"/>
<path fill-rule="evenodd" clip-rule="evenodd" d="M45.2941 45.0789L34.8396 41.758L39.5135 34.2554L48 34.8702L45.2941 45.0789Z" fill="#EB8F35"/>
<path fill-rule="evenodd" clip-rule="evenodd" d="M28.691 16.6699L33.9796 21.0977L38.0386 26.0175L27.953 26.3866L28.691 16.6699Z" fill="#E8821E"/>
<path fill-rule="evenodd" clip-rule="evenodd" d="M30.6587 28.4707L29.3057 31.2997L34.1026 30.0697L30.6587 28.4707Z" fill="#393939"/>
<path fill-rule="evenodd" clip-rule="evenodd" d="M45.4185 4L28.6911 16.6684L31.5199 9.78065L45.4185 4Z" fill="#E88F35"/>
<path fill-rule="evenodd" clip-rule="evenodd" d="M45.4184 4L47.6323 10.7647L46.4024 18.1444L47.2633 18.6364L46.0334 19.7434L47.0173 20.6043L45.6644 21.8343L46.5254 22.5723L44.5574 25.0322L35.3328 22.2033C30.823 18.5954 28.6091 16.7505 28.6911 16.6685C28.7731 16.5865 34.3489 12.3637 45.4184 4Z" fill="#8E5A30"/>
</svg>
