<svg width="516" height="323" viewBox="0 0 516 323" fill="none" xmlns="http://www.w3.org/2000/svg">
<g opacity="0.2" clip-path="url(#clip0_4065_8359)">
<mask id="mask0_4065_8359" style="mask-type:luminance" maskUnits="userSpaceOnUse" x="111" y="13" width="300" height="300">
<path d="M366.871 268.598C425.343 210.191 425.343 115.493 366.871 57.0853C308.4 -1.32248 213.598 -1.3225 155.127 57.0852C96.6554 115.493 96.6554 210.191 155.127 268.598C213.598 327.006 308.4 327.006 366.871 268.598Z" fill="white"/>
</mask>
<g mask="url(#mask0_4065_8359)">
<path d="M112.726 256.932L110.018 259.641L120.404 270.001L123.112 267.292L112.726 256.932Z" fill="#018EFC"/>
<path d="M110.011 267.315L112.723 270.021L123.094 259.646L120.382 256.941L110.011 267.315Z" fill="#018EFC"/>
<path d="M112.763 284.342L110.055 287.051L120.441 297.411L123.149 294.702L112.763 284.342Z" fill="#018EFC"/>
<path d="M110.033 294.711L112.745 297.416L123.117 287.041L120.405 284.336L110.033 294.711Z" fill="#018EFC"/>
<path d="M112.776 309.824L110.067 312.533L120.453 322.893L123.162 320.184L112.776 309.824Z" fill="#018EFC"/>
<path d="M110.062 320.235L112.774 322.94L123.146 312.566L120.434 309.861L110.062 320.235Z" fill="#018EFC"/>
<path d="M112.688 175.764L109.979 178.473L120.365 188.833L123.074 186.124L112.688 175.764Z" fill="#018EFC"/>
<path d="M109.953 186.115L112.665 188.82L123.037 178.446L120.325 175.74L109.953 186.115Z" fill="#018EFC"/>
<path d="M112.689 203.158L109.98 205.867L120.366 216.227L123.075 213.518L112.689 203.158Z" fill="#018EFC"/>
<path d="M109.982 213.545L112.694 216.25L123.066 205.875L120.354 203.17L109.982 213.545Z" fill="#018EFC"/>
<path d="M112.716 228.646L110.008 231.355L120.394 241.716L123.102 239.007L112.716 228.646Z" fill="#018EFC"/>
<path d="M109.996 239.033L112.708 241.738L123.079 231.364L120.368 228.658L109.996 239.033Z" fill="#018EFC"/>
<path d="M112.63 94.5429L109.922 97.252L120.308 107.612L123.016 104.903L112.63 94.5429Z" fill="#018EFC"/>
<path d="M109.909 104.933L112.621 107.639L122.993 97.264L120.281 94.5588L109.909 104.933Z" fill="#018EFC"/>
<path d="M112.63 121.988L109.922 124.697L120.308 135.057L123.016 132.348L112.63 121.988Z" fill="#018EFC"/>
<path d="M109.945 132.343L112.657 135.048L123.029 124.673L120.317 121.968L109.945 132.343Z" fill="#018EFC"/>
<path d="M112.657 147.478L109.949 150.187L120.335 160.547L123.043 157.838L112.657 147.478Z" fill="#018EFC"/>
<path d="M109.96 157.831L112.672 160.536L123.043 150.161L120.331 147.456L109.96 157.831Z" fill="#018EFC"/>
<path d="M112.558 13.3798L109.85 16.0889L120.236 26.449L122.944 23.74L112.558 13.3798Z" fill="#018EFC"/>
<path d="M109.859 23.7459L112.571 26.4512L122.943 16.0765L120.231 13.3713L109.859 23.7459Z" fill="#018EFC"/>
<path d="M112.595 40.7675L109.887 43.4766L120.273 53.8367L122.981 51.1277L112.595 40.7675Z" fill="#018EFC"/>
<path d="M109.881 51.1405L112.593 53.8457L122.964 43.4711L120.252 40.7658L109.881 51.1405Z" fill="#018EFC"/>
<path d="M112.601 66.2568L109.893 68.9658L120.279 79.326L122.987 76.617L112.601 66.2568Z" fill="#018EFC"/>
<path d="M109.896 76.6502L112.608 79.3555L122.98 68.9808L120.268 66.2756L109.896 76.6502Z" fill="#018EFC"/>
<path d="M141.582 256.931L138.874 259.64L149.26 270L151.968 267.291L141.582 256.931Z" fill="#018EFC"/>
<path d="M138.858 267.289L141.57 269.994L151.942 259.62L149.23 256.914L138.858 267.289Z" fill="#018EFC"/>
<path d="M168.877 256.901L166.169 259.61L176.555 269.971L179.263 267.261L168.877 256.901Z" fill="#018EFC"/>
<path d="M166.165 267.265L168.877 269.971L179.248 259.596L176.536 256.891L166.165 267.265Z" fill="#018EFC"/>
<path d="M196.133 256.88L193.425 259.589L203.811 269.949L206.519 267.24L196.133 256.88Z" fill="#018EFC"/>
<path d="M193.455 267.259L196.167 269.964L206.538 259.589L203.827 256.884L193.455 267.259Z" fill="#018EFC"/>
<path d="M223.426 256.885L220.718 259.594L231.104 269.954L233.812 267.245L223.426 256.885Z" fill="#018EFC"/>
<path d="M220.688 267.236L223.4 269.941L233.772 259.567L231.06 256.862L220.688 267.236Z" fill="#018EFC"/>
<path d="M250.684 256.842L247.976 259.551L258.362 269.911L261.07 267.202L250.684 256.842Z" fill="#018EFC"/>
<path d="M247.98 267.228L250.692 269.934L261.064 259.559L258.352 256.854L247.98 267.228Z" fill="#018EFC"/>
<path d="M141.62 284.298L138.912 287.007L149.298 297.367L152.006 294.658L141.62 284.298Z" fill="#018EFC"/>
<path d="M138.881 294.704L141.593 297.409L151.964 287.035L149.252 284.329L138.881 294.704Z" fill="#018EFC"/>
<path d="M168.876 284.296L166.168 287.005L176.554 297.365L179.262 294.656L168.876 284.296Z" fill="#018EFC"/>
<path d="M166.149 294.696L168.861 297.401L179.233 287.027L176.521 284.321L166.149 294.696Z" fill="#018EFC"/>
<path d="M196.169 284.311L193.461 287.02L203.847 297.38L206.555 294.671L196.169 284.311Z" fill="#018EFC"/>
<path d="M193.455 294.674L196.167 297.379L206.538 287.004L203.827 284.299L193.455 294.674Z" fill="#018EFC"/>
<path d="M223.442 284.273L220.733 286.982L231.119 297.343L233.828 294.634L223.442 284.273Z" fill="#018EFC"/>
<path d="M220.71 294.631L223.422 297.336L233.793 286.961L231.081 284.256L220.71 294.631Z" fill="#018EFC"/>
<path d="M250.721 284.272L248.013 286.981L258.399 297.342L261.107 294.633L250.721 284.272Z" fill="#018EFC"/>
<path d="M247.98 294.623L250.692 297.328L261.064 286.953L258.352 284.248L247.98 294.623Z" fill="#018EFC"/>
<path d="M141.626 309.808L138.918 312.517L149.304 322.877L152.012 320.168L141.626 309.808Z" fill="#018EFC"/>
<path d="M138.916 320.192L141.628 322.897L151.999 312.523L149.287 309.818L138.916 320.192Z" fill="#018EFC"/>
<path d="M168.904 309.807L166.196 312.516L176.582 322.876L179.29 320.167L168.904 309.807Z" fill="#018EFC"/>
<path d="M166.165 320.184L168.877 322.89L179.248 312.515L176.536 309.81L166.165 320.184Z" fill="#018EFC"/>
<path d="M196.176 309.799L193.468 312.508L203.854 322.868L206.562 320.159L196.176 309.799Z" fill="#018EFC"/>
<path d="M193.471 320.162L196.183 322.867L206.554 312.493L203.842 309.787L193.471 320.162Z" fill="#018EFC"/>
<path d="M223.454 309.777L220.746 312.486L231.132 322.847L233.84 320.137L223.454 309.777Z" fill="#018EFC"/>
<path d="M220.739 320.155L223.451 322.86L233.823 312.486L231.111 309.78L220.739 320.155Z" fill="#018EFC"/>
<path d="M250.727 309.761L248.019 312.47L258.405 322.83L261.113 320.121L250.727 309.761Z" fill="#018EFC"/>
<path d="M247.994 320.111L250.706 322.816L261.078 312.442L258.366 309.737L247.994 320.111Z" fill="#018EFC"/>
<path d="M141.526 175.74L138.817 178.449L149.203 188.809L151.912 186.1L141.526 175.74Z" fill="#018EFC"/>
<path d="M138.824 186.107L141.536 188.812L151.908 178.438L149.196 175.733L138.824 186.107Z" fill="#018EFC"/>
<path d="M168.82 175.702L166.111 178.411L176.497 188.771L179.205 186.062L168.82 175.702Z" fill="#018EFC"/>
<path d="M166.1 186.084L168.812 188.789L179.183 178.414L176.471 175.709L166.1 186.084Z" fill="#018EFC"/>
<path d="M196.097 175.701L193.389 178.41L203.775 188.77L206.483 186.061L196.097 175.701Z" fill="#018EFC"/>
<path d="M193.368 186.077L196.08 188.782L206.452 178.408L203.74 175.702L193.368 186.077Z" fill="#018EFC"/>
<path d="M223.354 175.658L220.646 178.367L231.031 188.727L233.74 186.018L223.354 175.658Z" fill="#018EFC"/>
<path d="M220.659 186.049L223.371 188.754L233.743 178.379L231.031 175.674L220.659 186.049Z" fill="#018EFC"/>
<path d="M250.633 175.657L247.925 178.366L258.311 188.726L261.019 186.017L250.633 175.657Z" fill="#018EFC"/>
<path d="M247.931 186.041L250.643 188.746L261.014 178.371L258.302 175.666L247.931 186.041Z" fill="#018EFC"/>
<path d="M141.562 203.149L138.854 205.858L149.239 216.219L151.948 213.51L141.562 203.149Z" fill="#018EFC"/>
<path d="M138.845 213.502L141.557 216.207L151.928 205.832L149.216 203.127L138.845 213.502Z" fill="#018EFC"/>
<path d="M168.834 203.111L166.126 205.82L176.512 216.18L179.22 213.471L168.834 203.111Z" fill="#018EFC"/>
<path d="M166.12 213.478L168.832 216.184L179.204 205.809L176.492 203.104L166.12 213.478Z" fill="#018EFC"/>
<path d="M196.112 203.09L193.403 205.799L203.789 216.159L206.497 213.45L196.112 203.09Z" fill="#018EFC"/>
<path d="M193.39 213.472L196.102 216.177L206.473 205.802L203.761 203.097L193.39 213.472Z" fill="#018EFC"/>
<path d="M223.391 203.089L220.683 205.798L231.069 216.158L233.777 213.449L223.391 203.089Z" fill="#018EFC"/>
<path d="M220.66 213.464L223.372 216.169L233.744 205.794L231.032 203.089L220.66 213.464Z" fill="#018EFC"/>
<path d="M250.647 203.066L247.938 205.775L258.324 216.136L261.033 213.427L250.647 203.066Z" fill="#018EFC"/>
<path d="M247.95 213.456L250.662 216.161L261.034 205.786L258.322 203.081L247.95 213.456Z" fill="#018EFC"/>
<path d="M141.568 228.658L138.859 231.367L149.245 241.727L151.954 239.018L141.568 228.658Z" fill="#018EFC"/>
<path d="M138.858 238.989L141.57 241.694L151.942 231.32L149.23 228.614L138.858 238.989Z" fill="#018EFC"/>
<path d="M168.846 228.616L166.138 231.325L176.524 241.685L179.232 238.976L168.846 228.616Z" fill="#018EFC"/>
<path d="M166.149 238.982L168.861 241.688L179.233 231.313L176.521 228.608L166.149 238.982Z" fill="#018EFC"/>
<path d="M196.139 228.6L193.431 231.309L203.817 241.669L206.525 238.96L196.139 228.6Z" fill="#018EFC"/>
<path d="M193.404 238.96L196.116 241.665L206.488 231.29L203.776 228.585L193.404 238.96Z" fill="#018EFC"/>
<path d="M223.397 228.578L220.688 231.287L231.074 241.647L233.783 238.938L223.397 228.578Z" fill="#018EFC"/>
<path d="M220.675 238.953L223.387 241.658L233.758 231.284L231.046 228.578L220.675 238.953Z" fill="#018EFC"/>
<path d="M250.675 228.556L247.967 231.265L258.353 241.625L261.061 238.916L250.675 228.556Z" fill="#018EFC"/>
<path d="M247.965 238.945L250.677 241.65L261.048 231.276L258.336 228.57L247.965 238.945Z" fill="#018EFC"/>
<path d="M141.488 94.54L138.78 97.249L149.166 107.609L151.874 104.9L141.488 94.54Z" fill="#018EFC"/>
<path d="M138.779 104.904L141.491 107.609L151.863 97.2347L149.151 94.5295L138.779 104.904Z" fill="#018EFC"/>
<path d="M168.746 94.539L166.038 97.248L176.424 107.608L179.132 104.899L168.746 94.539Z" fill="#018EFC"/>
<path d="M166.027 104.897L168.739 107.603L179.111 97.2279L176.399 94.5227L166.027 104.897Z" fill="#018EFC"/>
<path d="M196.025 94.5166L193.316 97.2256L203.702 107.586L206.411 104.877L196.025 94.5166Z" fill="#018EFC"/>
<path d="M193.319 104.889L196.031 107.595L206.403 97.2201L203.691 94.5148L193.319 104.889Z" fill="#018EFC"/>
<path d="M223.295 94.4795L220.587 97.1885L230.973 107.549L233.681 104.84L223.295 94.4795Z" fill="#018EFC"/>
<path d="M220.572 104.867L223.284 107.572L233.656 97.1976L230.944 94.4924L220.572 104.867Z" fill="#018EFC"/>
<path d="M250.59 94.4726L247.882 97.1816L258.268 107.542L260.976 104.833L250.59 94.4726Z" fill="#018EFC"/>
<path d="M247.857 104.845L250.569 107.55L260.941 97.1752L258.229 94.4699L247.857 104.845Z" fill="#018EFC"/>
<path d="M141.504 121.949L138.796 124.658L149.182 135.018L151.89 132.309L141.504 121.949Z" fill="#018EFC"/>
<path d="M138.779 132.32L141.491 135.025L151.863 124.651L149.151 121.946L138.779 132.32Z" fill="#018EFC"/>
<path d="M168.781 121.927L166.073 124.636L176.459 134.996L179.167 132.287L168.781 121.927Z" fill="#018EFC"/>
<path d="M166.07 132.311L168.782 135.017L179.154 124.642L176.442 121.937L166.07 132.311Z" fill="#018EFC"/>
<path d="M196.038 121.926L193.33 124.635L203.716 134.995L206.424 132.286L196.038 121.926Z" fill="#018EFC"/>
<path d="M193.317 132.305L196.029 135.01L206.401 124.635L203.689 121.93L193.317 132.305Z" fill="#018EFC"/>
<path d="M223.332 121.868L220.624 124.577L231.01 134.937L233.718 132.228L223.332 121.868Z" fill="#018EFC"/>
<path d="M220.594 132.262L223.306 134.967L233.677 124.592L230.965 121.887L220.594 132.262Z" fill="#018EFC"/>
<path d="M250.589 121.846L247.881 124.555L258.267 134.915L260.975 132.206L250.589 121.846Z" fill="#018EFC"/>
<path d="M247.886 132.254L250.598 134.959L260.969 124.584L258.257 121.879L247.886 132.254Z" fill="#018EFC"/>
<path d="M141.516 147.453L138.808 150.162L149.194 160.522L151.902 157.813L141.516 147.453Z" fill="#018EFC"/>
<path d="M138.809 157.823L141.521 160.528L151.892 150.154L149.18 147.448L138.809 157.823Z" fill="#018EFC"/>
<path d="M168.788 147.416L166.08 150.125L176.466 160.485L179.174 157.776L168.788 147.416Z" fill="#018EFC"/>
<path d="M166.063 157.801L168.775 160.506L179.147 150.131L176.435 147.426L166.063 157.801Z" fill="#018EFC"/>
<path d="M196.068 147.394L193.359 150.103L203.745 160.463L206.454 157.754L196.068 147.394Z" fill="#018EFC"/>
<path d="M193.334 157.793L196.046 160.498L206.417 150.123L203.705 147.418L193.334 157.793Z" fill="#018EFC"/>
<path d="M223.324 147.372L220.616 150.081L231.002 160.441L233.71 157.732L223.324 147.372Z" fill="#018EFC"/>
<path d="M220.645 157.764L223.357 160.47L233.729 150.095L231.017 147.39L220.645 157.764Z" fill="#018EFC"/>
<path d="M250.617 147.355L247.909 150.064L258.295 160.425L261.003 157.716L250.617 147.355Z" fill="#018EFC"/>
<path d="M247.9 157.741L250.612 160.446L260.984 150.072L258.272 147.366L247.9 157.741Z" fill="#018EFC"/>
<path d="M141.415 13.3564L138.707 16.0654L149.093 26.4256L151.801 23.7166L141.415 13.3564Z" fill="#018EFC"/>
<path d="M138.707 23.7391L141.419 26.4443L151.79 16.0697L149.078 13.3644L138.707 23.7391Z" fill="#018EFC"/>
<path d="M168.687 13.3193L165.979 16.0283L176.364 26.3885L179.073 23.6795L168.687 13.3193Z" fill="#018EFC"/>
<path d="M165.982 23.7166L168.694 26.4219L179.066 16.0472L176.354 13.342L165.982 23.7166Z" fill="#018EFC"/>
<path d="M195.982 13.3115L193.273 16.0205L203.659 26.3807L206.368 23.6717L195.982 13.3115Z" fill="#018EFC"/>
<path d="M193.268 23.6932L195.979 26.3984L206.351 16.0238L203.639 13.3185L193.268 23.6932Z" fill="#018EFC"/>
<path d="M223.258 13.3115L220.55 16.0205L230.936 26.3807L233.644 23.6717L223.258 13.3115Z" fill="#018EFC"/>
<path d="M220.558 23.6659L223.27 26.3711L233.641 15.9964L230.929 13.2912L220.558 23.6659Z" fill="#018EFC"/>
<path d="M250.516 13.289L247.808 15.998L258.194 26.3582L260.902 23.6492L250.516 13.289Z" fill="#018EFC"/>
<path d="M247.828 23.658L250.54 26.3633L260.912 15.9886L258.2 13.2834L247.828 23.658Z" fill="#018EFC"/>
<path d="M141.431 40.7441L138.723 43.4531L149.109 53.8133L151.817 51.1043L141.431 40.7441Z" fill="#018EFC"/>
<path d="M138.728 51.1327L141.44 53.8379L151.812 43.4632L149.1 40.758L138.728 51.1327Z" fill="#018EFC"/>
<path d="M168.709 40.7431L166.001 43.4521L176.387 53.8123L179.095 51.1033L168.709 40.7431Z" fill="#018EFC"/>
<path d="M166.019 51.1258L168.731 53.8311L179.103 43.4564L176.391 40.7512L166.019 51.1258Z" fill="#018EFC"/>
<path d="M196.002 40.706L193.294 43.415L203.68 53.7752L206.388 51.0662L196.002 40.706Z" fill="#018EFC"/>
<path d="M193.273 51.1024L195.985 53.8076L206.357 43.433L203.645 40.7277L193.273 51.1024Z" fill="#018EFC"/>
<path d="M223.274 40.6992L220.565 43.4082L230.951 53.7684L233.66 51.0594L223.274 40.6992Z" fill="#018EFC"/>
<path d="M220.558 51.0809L223.27 53.7861L233.641 43.4115L230.929 40.7062L220.558 51.0809Z" fill="#018EFC"/>
<path d="M250.552 40.6982L247.844 43.4072L258.23 53.7674L260.938 51.0584L250.552 40.6982Z" fill="#018EFC"/>
<path d="M247.85 51.0731L250.562 53.7783L260.933 43.4037L258.221 40.6984L247.85 51.0731Z" fill="#018EFC"/>
<path d="M141.459 66.2548L138.751 68.9639L149.137 79.324L151.845 76.615L141.459 66.2548Z" fill="#018EFC"/>
<path d="M138.743 76.6219L141.455 79.3271L151.827 68.9525L149.115 66.2473L138.743 76.6219Z" fill="#018EFC"/>
<path d="M168.737 66.2314L166.028 68.9404L176.414 79.3006L179.122 76.5916L168.737 66.2314Z" fill="#018EFC"/>
<path d="M166.034 76.6131L168.746 79.3184L179.118 68.9437L176.406 66.2385L166.034 76.6131Z" fill="#018EFC"/>
<path d="M195.993 66.2099L193.285 68.9189L203.671 79.2791L206.379 76.5701L195.993 66.2099Z" fill="#018EFC"/>
<path d="M193.304 76.6063L196.016 79.3115L206.387 68.9369L203.675 66.2316L193.304 76.6063Z" fill="#018EFC"/>
<path d="M223.286 66.1933L220.578 68.9023L230.964 79.2625L233.672 76.5535L223.286 66.1933Z" fill="#018EFC"/>
<path d="M220.558 76.5828L223.27 79.2881L233.641 68.9134L230.929 66.2082L220.558 76.5828Z" fill="#018EFC"/>
<path d="M250.559 66.1875L247.851 68.8965L258.237 79.2567L260.945 76.5476L250.559 66.1875Z" fill="#018EFC"/>
<path d="M247.864 76.5409L250.576 79.2461L260.948 68.8714L258.236 66.1662L247.864 76.5409Z" fill="#018EFC"/>
<path d="M275.257 256.831L272.549 259.54L282.935 269.9L285.643 267.191L275.257 256.831Z" fill="#018EFC"/>
<path d="M272.544 267.209L275.256 269.914L285.627 259.539L282.915 256.834L272.544 267.209Z" fill="#018EFC"/>
<path d="M302.535 256.81L299.827 259.519L310.213 269.879L312.921 267.17L302.535 256.81Z" fill="#018EFC"/>
<path d="M299.836 267.202L302.548 269.907L312.919 259.533L310.207 256.827L299.836 267.202Z" fill="#018EFC"/>
<path d="M329.843 256.809L327.135 259.518L337.521 269.878L340.229 267.169L329.843 256.809Z" fill="#018EFC"/>
<path d="M327.104 267.165L329.816 269.87L340.188 259.495L337.476 256.79L327.104 267.165Z" fill="#018EFC"/>
<path d="M357.1 256.786L354.392 259.495L364.778 269.855L367.486 267.146L357.1 256.786Z" fill="#018EFC"/>
<path d="M354.374 267.157L357.086 269.862L367.457 259.488L364.745 256.782L354.374 267.157Z" fill="#018EFC"/>
<path d="M384.378 256.743L381.67 259.452L392.056 269.812L394.764 267.103L384.378 256.743Z" fill="#018EFC"/>
<path d="M381.687 267.149L384.399 269.854L394.771 259.48L392.059 256.775L381.687 267.149Z" fill="#018EFC"/>
<path d="M275.292 284.241L272.584 286.95L282.97 297.31L285.678 294.601L275.292 284.241Z" fill="#018EFC"/>
<path d="M272.565 294.625L275.277 297.33L285.649 286.955L282.937 284.25L272.565 294.625Z" fill="#018EFC"/>
<path d="M302.549 284.219L299.841 286.928L310.227 297.288L312.935 294.579L302.549 284.219Z" fill="#018EFC"/>
<path d="M299.834 294.617L302.546 297.322L312.917 286.948L310.205 284.242L299.834 294.617Z" fill="#018EFC"/>
<path d="M329.844 284.182L327.136 286.891L337.522 297.251L340.23 294.542L329.844 284.182Z" fill="#018EFC"/>
<path d="M327.111 294.573L329.823 297.278L340.195 286.904L337.483 284.198L327.111 294.573Z" fill="#018EFC"/>
<path d="M357.135 284.175L354.427 286.884L364.813 297.244L367.521 294.535L357.135 284.175Z" fill="#018EFC"/>
<path d="M354.416 294.551L357.128 297.256L367.499 286.881L364.787 284.176L354.416 294.551Z" fill="#018EFC"/>
<path d="M384.393 284.174L381.685 286.883L392.071 297.243L394.779 294.534L384.393 284.174Z" fill="#018EFC"/>
<path d="M381.686 294.544L384.398 297.249L394.77 286.874L392.058 284.169L381.686 294.544Z" fill="#018EFC"/>
<path d="M275.299 309.751L272.591 312.46L282.977 322.82L285.685 320.111L275.299 309.751Z" fill="#018EFC"/>
<path d="M272.58 320.113L275.292 322.818L285.663 312.444L282.951 309.738L272.58 320.113Z" fill="#018EFC"/>
<path d="M302.577 309.708L299.869 312.417L310.255 322.777L312.963 320.068L302.577 309.708Z" fill="#018EFC"/>
<path d="M299.851 320.105L302.562 322.811L312.934 312.436L310.222 309.731L299.851 320.105Z" fill="#018EFC"/>
<path d="M329.856 309.665L327.147 312.374L337.533 322.734L340.242 320.025L329.856 309.665Z" fill="#018EFC"/>
<path d="M327.162 320.077L329.874 322.782L340.246 312.408L337.534 309.702L327.162 320.077Z" fill="#018EFC"/>
<path d="M357.127 309.649L354.419 312.358L364.805 322.719L367.513 320.01L357.127 309.649Z" fill="#018EFC"/>
<path d="M354.416 320.055L357.128 322.76L367.499 312.385L364.787 309.68L354.416 320.055Z" fill="#018EFC"/>
<path d="M384.42 309.662L381.712 312.371L392.098 322.731L394.806 320.022L384.42 309.662Z" fill="#018EFC"/>
<path d="M381.68 320.032L384.392 322.737L394.763 312.363L392.051 309.657L381.68 320.032Z" fill="#018EFC"/>
<path d="M275.219 175.612L272.511 178.321L282.897 188.681L285.605 185.972L275.219 175.612Z" fill="#018EFC"/>
<path d="M272.499 186.029L275.211 188.734L285.582 178.36L282.87 175.654L272.499 186.029Z" fill="#018EFC"/>
<path d="M302.491 175.626L299.783 178.335L310.169 188.695L312.877 185.986L302.491 175.626Z" fill="#018EFC"/>
<path d="M299.785 185.985L302.497 188.69L312.869 178.316L310.157 175.611L299.785 185.985Z" fill="#018EFC"/>
<path d="M329.77 175.603L327.062 178.312L337.448 188.673L340.156 185.964L329.77 175.603Z" fill="#018EFC"/>
<path d="M327.032 185.999L329.744 188.704L340.116 178.329L337.404 175.624L327.032 185.999Z" fill="#018EFC"/>
<path d="M357.026 175.581L354.317 178.29L364.703 188.65L367.412 185.941L357.026 175.581Z" fill="#018EFC"/>
<path d="M354.322 185.97L357.034 188.675L367.406 178.3L364.694 175.595L354.322 185.97Z" fill="#018EFC"/>
<path d="M384.321 175.565L381.612 178.274L391.998 188.635L394.706 185.926L384.321 175.565Z" fill="#018EFC"/>
<path d="M381.6 185.948L384.312 188.653L394.683 178.279L391.971 175.573L381.6 185.948Z" fill="#018EFC"/>
<path d="M275.219 203.036L272.511 205.745L282.897 216.105L285.605 213.396L275.219 203.036Z" fill="#018EFC"/>
<path d="M272.515 213.437L275.227 216.143L285.598 205.768L282.886 203.063L272.515 213.437Z" fill="#018EFC"/>
<path d="M302.512 203.02L299.804 205.729L310.19 216.09L312.898 213.381L302.512 203.02Z" fill="#018EFC"/>
<path d="M299.79 213.416L302.502 216.121L312.873 205.746L310.161 203.041L299.79 213.416Z" fill="#018EFC"/>
<path d="M329.784 203.013L327.076 205.722L337.462 216.082L340.17 213.373L329.784 203.013Z" fill="#018EFC"/>
<path d="M327.074 213.392L329.786 216.098L340.158 205.723L337.446 203.018L327.074 213.392Z" fill="#018EFC"/>
<path d="M357.062 202.991L354.354 205.7L364.739 216.06L367.448 213.351L357.062 202.991Z" fill="#018EFC"/>
<path d="M354.344 213.386L357.056 216.091L367.427 205.716L364.715 203.011L354.344 213.386Z" fill="#018EFC"/>
<path d="M384.336 202.954L381.628 205.663L392.014 216.023L394.722 213.314L384.336 202.954Z" fill="#018EFC"/>
<path d="M381.621 213.342L384.333 216.047L394.704 205.672L391.993 202.967L381.621 213.342Z" fill="#018EFC"/>
<path d="M275.246 228.546L272.538 231.255L282.924 241.615L285.632 238.906L275.246 228.546Z" fill="#018EFC"/>
<path d="M272.508 238.926L275.22 241.631L285.591 231.256L282.879 228.551L272.508 238.926Z" fill="#018EFC"/>
<path d="M302.519 228.509L299.811 231.218L310.197 241.578L312.905 238.869L302.519 228.509Z" fill="#018EFC"/>
<path d="M299.783 238.903L302.495 241.608L312.867 231.234L310.155 228.529L299.783 238.903Z" fill="#018EFC"/>
<path d="M329.813 228.502L327.104 231.211L337.49 241.571L340.199 238.862L329.813 228.502Z" fill="#018EFC"/>
<path d="M327.09 238.882L329.802 241.587L340.173 231.212L337.461 228.507L327.09 238.882Z" fill="#018EFC"/>
<path d="M357.069 228.479L354.36 231.188L364.746 241.549L367.455 238.84L357.069 228.479Z" fill="#018EFC"/>
<path d="M354.359 238.874L357.071 241.579L367.443 231.204L364.731 228.499L354.359 238.874Z" fill="#018EFC"/>
<path d="M384.348 228.458L381.64 231.167L392.026 241.527L394.734 238.818L384.348 228.458Z" fill="#018EFC"/>
<path d="M381.65 238.846L384.362 241.551L394.734 231.176L392.022 228.471L381.65 238.846Z" fill="#018EFC"/>
<path d="M275.162 94.4629L272.454 97.1719L282.84 107.532L285.548 104.823L275.162 94.4629Z" fill="#018EFC"/>
<path d="M272.443 104.826L275.155 107.531L285.527 97.1566L282.815 94.4514L272.443 104.826Z" fill="#018EFC"/>
<path d="M302.418 94.4199L299.71 97.1289L310.096 107.489L312.804 104.78L302.418 94.4199Z" fill="#018EFC"/>
<path d="M299.713 104.819L302.425 107.524L312.796 97.1498L310.084 94.4445L299.713 104.819Z" fill="#018EFC"/>
<path d="M329.712 94.4033L327.004 97.1123L337.39 107.472L340.098 104.763L329.712 94.4033Z" fill="#018EFC"/>
<path d="M327.01 104.796L329.722 107.501L340.093 97.1263L337.381 94.4211L327.01 104.796Z" fill="#018EFC"/>
<path d="M356.99 94.3818L354.282 97.0908L364.668 107.451L367.376 104.742L356.99 94.3818Z" fill="#018EFC"/>
<path d="M354.279 104.788L356.991 107.493L367.363 97.1185L364.651 94.4133L354.279 104.788Z" fill="#018EFC"/>
<path d="M384.268 94.3808L381.56 97.0898L391.946 107.45L394.654 104.741L384.268 94.3808Z" fill="#018EFC"/>
<path d="M381.527 104.781L384.239 107.486L394.611 97.1117L391.899 94.4064L381.527 104.781Z" fill="#018EFC"/>
<path d="M275.178 121.852L272.47 124.561L282.856 134.921L285.564 132.212L275.178 121.852Z" fill="#018EFC"/>
<path d="M272.465 132.242L275.177 134.947L285.548 124.573L282.836 121.867L272.465 132.242Z" fill="#018EFC"/>
<path d="M302.454 121.829L299.746 124.538L310.132 134.898L312.84 132.189L302.454 121.829Z" fill="#018EFC"/>
<path d="M299.755 132.213L302.467 134.918L312.838 124.543L310.126 121.838L299.755 132.213Z" fill="#018EFC"/>
<path d="M329.734 121.828L327.025 124.537L337.411 134.897L340.12 132.188L329.734 121.828Z" fill="#018EFC"/>
<path d="M327.004 132.205L329.716 134.91L340.087 124.536L337.375 121.83L327.004 132.205Z" fill="#018EFC"/>
<path d="M357.005 121.791L354.297 124.5L364.683 134.86L367.391 132.151L357.005 121.791Z" fill="#018EFC"/>
<path d="M354.279 132.182L356.991 134.888L367.363 124.513L364.651 121.808L354.279 132.182Z" fill="#018EFC"/>
<path d="M384.284 121.769L381.576 124.478L391.962 134.838L394.67 132.129L384.284 121.769Z" fill="#018EFC"/>
<path d="M381.57 132.175L384.282 134.88L394.654 124.505L391.942 121.8L381.57 132.175Z" fill="#018EFC"/>
<path d="M275.204 147.34L272.496 150.049L282.882 160.409L285.59 157.7L275.204 147.34Z" fill="#018EFC"/>
<path d="M272.501 157.709L275.213 160.414L285.584 150.039L282.872 147.334L272.501 157.709Z" fill="#018EFC"/>
<path d="M302.483 147.339L299.774 150.048L310.16 160.408L312.869 157.699L302.483 147.339Z" fill="#018EFC"/>
<path d="M299.769 157.701L302.481 160.406L312.853 150.032L310.141 147.326L299.769 157.701Z" fill="#018EFC"/>
<path d="M329.738 147.338L327.03 150.047L337.416 160.407L340.124 157.698L329.738 147.338Z" fill="#018EFC"/>
<path d="M327.018 157.715L329.729 160.42L340.101 150.045L337.389 147.34L327.018 157.715Z" fill="#018EFC"/>
<path d="M357.033 147.28L354.325 149.989L364.711 160.349L367.419 157.64L357.033 147.28Z" fill="#018EFC"/>
<path d="M354.295 157.672L357.007 160.377L367.378 150.002L364.666 147.297L354.295 157.672Z" fill="#018EFC"/>
<path d="M384.29 147.279L381.582 149.988L391.968 160.348L394.676 157.639L384.29 147.279Z" fill="#018EFC"/>
<path d="M381.586 157.664L384.298 160.369L394.669 149.994L391.957 147.289L381.586 157.664Z" fill="#018EFC"/>
<path d="M275.111 13.2783L272.402 15.9873L282.788 26.3475L285.497 23.6385L275.111 13.2783Z" fill="#018EFC"/>
<path d="M272.393 23.659L275.104 26.3643L285.476 15.9896L282.764 13.2844L272.393 23.659Z" fill="#018EFC"/>
<path d="M302.383 13.2412L299.675 15.9502L310.061 26.3104L312.769 23.6013L302.383 13.2412Z" fill="#018EFC"/>
<path d="M299.669 23.616L302.381 26.3213L312.752 15.9466L310.04 13.2414L299.669 23.616Z" fill="#018EFC"/>
<path d="M329.64 13.2197L326.932 15.9287L337.318 26.2889L340.026 23.5799L329.64 13.2197Z" fill="#018EFC"/>
<path d="M326.938 23.6092L329.65 26.3145L340.022 15.9398L337.31 13.2346L326.938 23.6092Z" fill="#018EFC"/>
<path d="M356.918 13.1972L354.21 15.9062L364.596 26.2664L367.304 23.5574L356.918 13.1972Z" fill="#018EFC"/>
<path d="M354.23 23.6014L356.942 26.3066L367.314 15.932L364.602 13.2268L354.23 23.6014Z" fill="#018EFC"/>
<path d="M384.226 13.1962L381.518 15.9053L391.904 26.2654L394.612 23.5564L384.226 13.1962Z" fill="#018EFC"/>
<path d="M381.52 23.5428L384.232 26.248L394.604 15.8734L391.892 13.1681L381.52 23.5428Z" fill="#018EFC"/>
<path d="M275.126 40.6669L272.418 43.376L282.804 53.7362L285.512 51.0271L275.126 40.6669Z" fill="#018EFC"/>
<path d="M272.414 51.0535L275.126 53.7588L285.497 43.3841L282.785 40.6789L272.414 51.0535Z" fill="#018EFC"/>
<path d="M302.419 40.6504L299.711 43.3594L310.097 53.7195L312.805 51.0105L302.419 40.6504Z" fill="#018EFC"/>
<path d="M299.669 51.0311L302.381 53.7363L312.752 43.3617L310.04 40.6565L299.669 51.0311Z" fill="#018EFC"/>
<path d="M329.654 40.6074L326.946 43.3164L337.332 53.6766L340.04 50.9676L329.654 40.6074Z" fill="#018EFC"/>
<path d="M326.96 51.0233L329.672 53.7285L340.043 43.3539L337.331 40.6486L326.96 51.0233Z" fill="#018EFC"/>
<path d="M356.933 40.6064L354.225 43.3154L364.611 53.6756L367.319 50.9666L356.933 40.6064Z" fill="#018EFC"/>
<path d="M354.251 50.9949L356.963 53.7002L367.334 43.3255L364.622 40.6203L354.251 50.9949Z" fill="#018EFC"/>
<path d="M384.211 40.6054L381.503 43.3145L391.889 53.6746L394.597 50.9656L384.211 40.6054Z" fill="#018EFC"/>
<path d="M381.499 51.0086L384.211 53.7139L394.582 43.3392L391.87 40.634L381.499 51.0086Z" fill="#018EFC"/>
<path d="M275.132 66.1553L272.424 68.8643L282.81 79.2244L285.518 76.5154L275.132 66.1553Z" fill="#018EFC"/>
<path d="M272.43 76.5418L275.142 79.2471L285.513 68.8724L282.801 66.1672L272.43 76.5418Z" fill="#018EFC"/>
<path d="M302.41 66.1543L299.702 68.8633L310.088 79.2235L312.796 76.5145L302.41 66.1543Z" fill="#018EFC"/>
<path d="M299.698 76.534L302.41 79.2393L312.782 68.8646L310.07 66.1594L299.698 76.534Z" fill="#018EFC"/>
<path d="M329.683 66.0957L326.975 68.8047L337.361 79.1649L340.069 76.4558L329.683 66.0957Z" fill="#018EFC"/>
<path d="M326.997 76.4901L329.709 79.1953L340.08 68.8207L337.368 66.1154L326.997 76.4901Z" fill="#018EFC"/>
<path d="M356.961 66.0957L354.253 68.8047L364.639 79.1649L367.347 76.4559L356.961 66.0957Z" fill="#018EFC"/>
<path d="M354.244 76.4832L356.956 79.1885L367.328 68.8138L364.616 66.1086L354.244 76.4832Z" fill="#018EFC"/>
<path d="M384.238 66.0947L381.53 68.8037L391.916 79.1639L394.624 76.4549L384.238 66.0947Z" fill="#018EFC"/>
<path d="M381.514 76.4979L384.226 79.2031L394.597 68.8285L391.885 66.1233L381.514 76.4979Z" fill="#018EFC"/>
<path d="M413.25 256.748L410.542 259.457L420.928 269.817L423.636 267.108L413.25 256.748Z" fill="#018EFC"/>
<path d="M410.518 267.107L413.23 269.812L423.602 259.438L420.89 256.733L410.518 267.107Z" fill="#018EFC"/>
<path d="M413.251 284.15L410.543 286.859L420.929 297.22L423.637 294.51L413.251 284.15Z" fill="#018EFC"/>
<path d="M410.534 294.536L413.246 297.241L423.618 286.867L420.906 284.161L410.534 294.536Z" fill="#018EFC"/>
<path d="M413.257 309.64L410.549 312.349L420.935 322.709L423.643 320L413.257 309.64Z" fill="#018EFC"/>
<path d="M410.55 320.025L413.262 322.73L423.633 312.356L420.921 309.651L410.55 320.025Z" fill="#018EFC"/>
<path d="M413.177 175.542L410.469 178.251L420.855 188.611L423.563 185.902L413.177 175.542Z" fill="#018EFC"/>
<path d="M410.446 185.94L413.158 188.646L423.53 178.271L420.818 175.566L410.446 185.94Z" fill="#018EFC"/>
<path d="M413.193 202.951L410.484 205.66L420.87 216.02L423.579 213.311L413.193 202.951Z" fill="#018EFC"/>
<path d="M410.49 213.335L413.202 216.04L423.574 205.665L420.862 202.96L410.49 213.335Z" fill="#018EFC"/>
<path d="M413.22 228.44L410.512 231.149L420.898 241.51L423.606 238.801L413.22 228.44Z" fill="#018EFC"/>
<path d="M410.504 238.823L413.216 241.528L423.587 231.154L420.875 228.448L410.504 238.823Z" fill="#018EFC"/>
<path d="M413.105 94.3574L410.396 97.0664L420.782 107.427L423.491 104.718L413.105 94.3574Z" fill="#018EFC"/>
<path d="M410.396 104.753L413.108 107.458L423.48 97.0834L420.768 94.3781L410.396 104.753Z" fill="#018EFC"/>
<path d="M413.119 121.767L410.411 124.476L420.797 134.836L423.505 132.127L413.119 121.767Z" fill="#018EFC"/>
<path d="M410.396 132.168L413.108 134.873L423.48 124.498L420.768 121.793L410.396 132.168Z" fill="#018EFC"/>
<path d="M413.149 147.256L410.44 149.965L420.826 160.325L423.535 157.616L413.149 147.256Z" fill="#018EFC"/>
<path d="M410.412 157.657L413.124 160.362L423.496 149.988L420.784 147.282L410.412 157.657Z" fill="#018EFC"/>
<path d="M413.063 13.1728L410.354 15.8818L420.74 26.242L423.449 23.533L413.063 13.1728Z" fill="#018EFC"/>
<path d="M410.347 23.5565L413.059 26.2617L423.43 15.8871L420.718 13.1818L410.347 23.5565Z" fill="#018EFC"/>
<path d="M413.1 40.582L410.392 43.291L420.778 53.6512L423.486 50.9422L413.1 40.582Z" fill="#018EFC"/>
<path d="M410.368 50.951L413.08 53.6562L423.452 43.2816L420.74 40.5764L410.368 50.951Z" fill="#018EFC"/>
<path d="M413.106 66.0712L410.397 68.7803L420.783 79.1404L423.492 76.4314L413.106 66.0712Z" fill="#018EFC"/>
<path d="M410.383 76.4393L413.095 79.1445L423.466 68.7699L420.754 66.0646L410.383 76.4393Z" fill="#018EFC"/>
</g>
<path d="M149.428 0H143.953V13.6731H149.428V0Z" fill="#0AE9FE"/>
<path d="M149.428 0H143.953V13.6731H149.428V0Z" fill="#0AE9FE"/>
<path d="M149.428 225.627H143.953V239.3H149.428V225.627Z" fill="#0AE9FE"/>
<path d="M40.5982 116.915H26.9102V122.384H40.5982V116.915Z" fill="#0AE9FE"/>
<path d="M40.5982 116.915H26.9102V122.384H40.5982V116.915Z" fill="#0AE9FE"/>
<path d="M266.471 116.915H252.783V122.384H266.471V116.915Z" fill="#0AE9FE"/>
<path d="M63.9458 33.1102L60.0742 36.9775L69.7531 46.6459L73.6246 42.7785L63.9458 33.1102Z" fill="#0AE9FE"/>
<path d="M63.9458 33.1102L60.0742 36.9775L69.7531 46.6459L73.6246 42.7785L63.9458 33.1102Z" fill="#0AE9FE"/>
<path d="M223.64 192.665L219.769 196.532L229.447 206.201L233.319 202.333L223.64 192.665Z" fill="#0AE9FE"/>
<path d="M69.7407 192.646L60.0635 202.316L63.9357 206.183L73.6129 196.513L69.7407 192.646Z" fill="#0AE9FE"/>
<path d="M69.7407 192.646L60.0635 202.316L63.9357 206.183L73.6129 196.513L69.7407 192.646Z" fill="#0AE9FE"/>
<path d="M229.452 33.1054L219.774 42.7754L223.647 46.642L233.324 36.972L229.452 33.1054Z" fill="#0AE9FE"/>
<path d="M122.065 2.52732L116.733 3.77344L119.852 17.0869L125.183 15.8408L122.065 2.52732Z" fill="#0AE9FE"/>
<path d="M122.065 2.52732L116.733 3.77344L119.852 17.0869L125.183 15.8408L122.065 2.52732Z" fill="#0AE9FE"/>
<path d="M173.536 222.228L168.205 223.474L171.324 236.787L176.655 235.541L173.536 222.228Z" fill="#0AE9FE"/>
<path d="M42.7771 141.132L29.4502 144.252L30.6995 149.577L44.0264 146.457L42.7771 141.132Z" fill="#0AE9FE"/>
<path d="M42.7771 141.132L29.4502 144.252L30.6995 149.577L44.0264 146.457L42.7771 141.132Z" fill="#0AE9FE"/>
<path d="M262.701 89.7349L249.374 92.8525L250.622 98.1777L263.95 95.0601L262.701 89.7349Z" fill="#0AE9FE"/>
<path d="M46.3731 54.2277L43.4863 58.875L55.1171 66.0842L58.004 61.4369L46.3731 54.2277Z" fill="#0AE9FE"/>
<path d="M46.3731 54.2277L43.4863 58.875L55.1171 66.0842L58.004 61.4369L46.3731 54.2277Z" fill="#0AE9FE"/>
<path d="M238.275 173.199L235.388 177.847L247.019 185.056L249.905 180.409L238.275 173.199Z" fill="#0AE9FE"/>
<path d="M88.4359 208.239L81.2168 219.855L85.8686 222.74L93.0877 211.123L88.4359 208.239Z" fill="#0AE9FE"/>
<path d="M88.4359 208.239L81.2168 219.855L85.8686 222.74L93.0877 211.123L88.4359 208.239Z" fill="#0AE9FE"/>
<path d="M207.513 16.5394L200.294 28.1562L204.946 31.0407L212.165 19.4239L207.513 16.5394Z" fill="#0AE9FE"/>
<path d="M105.057 7.41287L99.9678 9.43066L105.018 22.1392L110.107 20.1214L105.057 7.41287Z" fill="#0AE9FE"/>
<path d="M105.057 7.41287L99.9678 9.43066L105.018 22.1392L110.107 20.1214L105.057 7.41287Z" fill="#0AE9FE"/>
<path d="M188.368 217.14L183.279 219.158L188.329 231.867L193.418 229.849L188.368 217.14Z" fill="#0AE9FE"/>
<path d="M47.0671 156.186L34.3447 161.23L36.3647 166.314L49.0871 161.269L47.0671 156.186Z" fill="#0AE9FE"/>
<path d="M47.0671 156.186L34.3447 161.23L36.3647 166.314L49.0871 161.269L47.0671 156.186Z" fill="#0AE9FE"/>
<path d="M257.023 72.9653L244.301 78.0098L246.321 83.0932L259.043 78.0487L257.023 72.9653Z" fill="#0AE9FE"/>
<path d="M37.8184 69.7047L35.6475 74.7256L48.2135 80.1471L50.3844 75.1261L37.8184 69.7047Z" fill="#0AE9FE"/>
<path d="M37.8184 69.7047L35.6475 74.7256L48.2135 80.1471L50.3844 75.1261L37.8184 69.7047Z" fill="#0AE9FE"/>
<path d="M245.2 159.17L243.029 164.191L255.595 169.613L257.766 164.592L245.2 159.17Z" fill="#0AE9FE"/>
<path d="M102.139 215.878L96.7139 228.432L101.741 230.599L107.166 218.046L102.139 215.878Z" fill="#0AE9FE"/>
<path d="M102.139 215.878L96.7139 228.432L101.741 230.599L107.166 218.046L102.139 215.878Z" fill="#0AE9FE"/>
<path d="M191.655 8.72116L186.229 21.2744L191.256 23.4421L196.681 10.8889L191.655 8.72116Z" fill="#0AE9FE"/>
<path d="M80.5535 19.8634L76.0586 22.9863L83.8744 34.2112L88.3693 31.0883L80.5535 19.8634Z" fill="#0AE9FE"/>
<path d="M80.5535 19.8634L76.0586 22.9863L83.8744 34.2112L88.3693 31.0883L80.5535 19.8634Z" fill="#0AE9FE"/>
<path d="M209.526 205.078L205.031 208.201L212.847 219.426L217.342 216.303L209.526 205.078Z" fill="#0AE9FE"/>
<path d="M58.0389 177.908L46.8018 185.716L49.9281 190.206L61.1653 182.398L58.0389 177.908Z" fill="#0AE9FE"/>
<path d="M58.0389 177.908L46.8018 185.716L49.9281 190.206L61.1653 182.398L58.0389 177.908Z" fill="#0AE9FE"/>
<path d="M243.473 49.1048L232.235 56.9121L235.362 61.4021L246.599 53.5947L243.473 49.1048Z" fill="#0AE9FE"/>
<path d="M29.2782 95.8034L28.3105 101.187L41.7831 103.603L42.7508 98.22L29.2782 95.8034Z" fill="#0AE9FE"/>
<path d="M29.2782 95.8034L28.3105 101.187L41.7831 103.603L42.7508 98.22L29.2782 95.8034Z" fill="#0AE9FE"/>
<path d="M251.614 135.693L250.646 141.076L264.119 143.493L265.087 138.11L251.614 135.693Z" fill="#0AE9FE"/>
<path d="M125.261 223.472L122.844 236.931L128.233 237.896L130.65 224.438L125.261 223.472Z" fill="#0AE9FE"/>
<path d="M125.261 223.472L122.844 236.931L128.233 237.896L130.65 224.438L125.261 223.472Z" fill="#0AE9FE"/>
<path d="M165.159 1.39137L162.742 14.8496L168.131 15.8153L170.548 2.35707L165.159 1.39137Z" fill="#0AE9FE"/>
</g>
<defs>
<clipPath id="clip0_4065_8359">
<rect width="532" height="323" fill="white" transform="translate(0.755859)"/>
</clipPath>
</defs>
</svg>
