<svg width="17" height="16" viewBox="0 0 17 16" fill="none" xmlns="http://www.w3.org/2000/svg">
<path d="M7.44434 4.73145C10.0215 4.93664 12.0868 7.02109 12.29 9.62207C12.2982 9.76149 12.3057 9.90942 12.3057 10.0488C12.3055 12.9943 9.93999 15.3818 7.02148 15.3818C4.10295 15.3818 1.73747 12.9943 1.7373 10.0488C1.7373 7.10319 4.10285 4.71484 7.02148 4.71484C7.15968 4.71485 7.30615 4.72324 7.44434 4.73145ZM6.30566 9.32617L4.98926 10.0488L6.30566 10.7705L7.02148 12.0996L7.7373 10.7705L9.05371 10.0488L7.7373 9.32617L7.02148 7.99707L6.30566 9.32617ZM11.4248 1.15918C14.3433 1.15918 16.71 3.54765 16.71 6.49316C16.7099 8.89016 15.1427 10.9178 12.9863 11.5898C13.1171 11.0985 13.1865 10.5818 13.1865 10.0488C13.1865 6.77612 10.5581 4.1232 7.31543 4.12305C7.09844 4.12305 6.88373 4.13409 6.67285 4.15723C7.53082 2.38244 9.33646 1.15936 11.4248 1.15918Z" fill="white"/>
<path d="M1.38208 3.91672C1.1591 3.9323 0.983916 4.11628 0.977645 4.3449C0.970161 4.62205 1.21398 4.84814 1.4974 4.82217C2.33203 4.74547 3.73341 4.65316 5.05514 4.73536L5.28576 4.75039L5.23732 4.97683L5.08644 5.68787C5.05575 5.83217 5.11055 5.98387 5.22976 6.07665C5.34926 6.16945 5.51108 6.18582 5.64529 6.12055L7.71482 5.11459C7.82153 5.0627 7.89774 4.96492 7.92242 4.84998C7.94706 4.73487 7.91779 4.61332 7.84123 4.52093L6.3642 2.73874C6.2679 2.62275 6.11389 2.57142 5.96786 2.60611C5.82199 2.64088 5.70965 2.75528 5.67893 2.89972L5.49155 3.78158L5.45335 3.96341L5.26904 3.938C4.0302 3.7692 2.28171 3.85383 1.38208 3.91672Z" fill="white" stroke="#0036AE" stroke-width="0.4"/>
</svg>
