<svg width="17" height="16" viewBox="0 0 17 16" fill="none" xmlns="http://www.w3.org/2000/svg">
<path d="M7.44437 4.73145C10.0215 4.93664 12.0868 7.02109 12.2901 9.62207C12.2982 9.76149 12.3057 9.90942 12.3057 10.0488C12.3055 12.9943 9.94002 15.3818 7.02151 15.3818C4.10298 15.3818 1.7375 12.9943 1.73734 10.0488C1.73734 7.10319 4.10288 4.71484 7.02151 4.71484C7.15971 4.71485 7.30618 4.72324 7.44437 4.73145ZM6.30569 9.32617L4.98929 10.0488L6.30569 10.7705L7.02151 12.0996L7.73734 10.7705L9.05374 10.0488L7.73734 9.32617L7.02151 7.99707L6.30569 9.32617ZM11.4248 1.15918C14.3433 1.15918 16.71 3.54765 16.71 6.49316C16.7099 8.89016 15.1428 10.9178 12.9864 11.5898C13.1171 11.0985 13.1865 10.5818 13.1866 10.0488C13.1866 6.77612 10.5581 4.1232 7.31546 4.12305C7.09848 4.12305 6.88376 4.13409 6.67288 4.15723C7.53085 2.38244 9.33649 1.15936 11.4248 1.15918Z" fill="#0036AE"/>
<path d="M1.3819 3.91672C1.15892 3.9323 0.983732 4.11628 0.977462 4.3449C0.969977 4.62205 1.2138 4.84814 1.49722 4.82217C2.33185 4.74547 3.73323 4.65316 5.05495 4.73536L5.28558 4.75039L5.23714 4.97683L5.08626 5.68787C5.05557 5.83217 5.11036 5.98387 5.22958 6.07665C5.34907 6.16945 5.5109 6.18582 5.64511 6.12055L7.71463 5.11459C7.82135 5.0627 7.89756 4.96492 7.92224 4.84998C7.94687 4.73487 7.9176 4.61332 7.84105 4.52093L6.36401 2.73874C6.26772 2.62275 6.1137 2.57142 5.96768 2.60611C5.8218 2.64088 5.70947 2.75528 5.67875 2.89972L5.49136 3.78158L5.45317 3.96341L5.26886 3.938C4.03002 3.7692 2.28153 3.85383 1.3819 3.91672Z" fill="#0036AE" stroke="#B8CEFF" stroke-width="0.4"/>
</svg>
