<svg width="17" height="16" viewBox="0 0 17 16" fill="none" xmlns="http://www.w3.org/2000/svg">
<path d="M6.94434 4.73145C9.52145 4.93664 11.5868 7.02109 11.79 9.62207C11.7982 9.76149 11.8057 9.90942 11.8057 10.0488C11.8055 12.9943 9.43999 15.3818 6.52148 15.3818C3.60295 15.3818 1.23747 12.9943 1.2373 10.0488C1.2373 7.10319 3.60285 4.71484 6.52148 4.71484C6.65968 4.71485 6.80615 4.72324 6.94434 4.73145ZM5.80566 9.32617L4.48926 10.0488L5.80566 10.7705L6.52148 12.0996L7.2373 10.7705L8.55371 10.0488L7.2373 9.32617L6.52148 7.99707L5.80566 9.32617ZM10.9248 1.15918C13.8433 1.15918 16.21 3.54765 16.21 6.49316C16.2099 8.89016 14.6427 10.9178 12.4863 11.5898C12.6171 11.0985 12.6865 10.5818 12.6865 10.0488C12.6865 6.77612 10.0581 4.1232 6.81543 4.12305C6.59844 4.12305 6.38373 4.13409 6.17285 4.15723C7.03082 2.38244 8.83646 1.15936 10.9248 1.15918Z" fill="white"/>
<path d="M8.14575 3.91672C8.36873 3.9323 8.54392 4.11628 8.55019 4.3449C8.55767 4.62205 8.31385 4.84814 8.03043 4.82217C7.1958 4.74547 5.79442 4.65316 4.4727 4.73536L4.24207 4.75039L4.29051 4.97683L4.44139 5.68787C4.47208 5.83217 4.41728 5.98387 4.29807 6.07665C4.17858 6.16945 4.01675 6.18582 3.88254 6.12055L1.81301 5.11459C1.7063 5.0627 1.63009 4.96492 1.60541 4.84998C1.58078 4.73487 1.61005 4.61332 1.6866 4.52093L3.16363 2.73874C3.25993 2.62275 3.41395 2.57142 3.55997 2.60611C3.70585 2.64088 3.81818 2.75528 3.8489 2.89972L4.03629 3.78158L4.07448 3.96341L4.25879 3.938C5.49763 3.7692 7.24612 3.85383 8.14575 3.91672Z" fill="white" stroke="#0036AE" stroke-width="0.4"/>
</svg>
