<svg width="31" height="32" viewBox="0 0 31 32" fill="none" xmlns="http://www.w3.org/2000/svg">
<path d="M7.75 10.667H12.9167" stroke="white" stroke-width="3.75" stroke-linecap="round" stroke-linejoin="round"/>
<path d="M28.4167 14C28.4167 13.8968 28.4167 13.2897 28.4137 13.2461C28.368 12.5785 27.8132 12.0466 27.1166 12.0029C27.0711 12 27.0174 12 26.9097 12H23.5481C21.2434 12 19.375 13.7908 19.375 16C19.375 18.2092 21.2434 20 23.5481 20H26.9097C27.0174 20 27.0711 20 27.1166 19.9972C27.8132 19.9533 28.368 19.4216 28.4137 18.7539C28.4167 18.7103 28.4167 18.1032 28.4167 18" stroke="white" stroke-width="3.75" stroke-linecap="round"/>
<path d="M23.2497 17.3337C23.963 17.3337 24.5413 16.7367 24.5413 16.0003C24.5413 15.2639 23.963 14.667 23.2497 14.667C22.5363 14.667 21.958 15.2639 21.958 16.0003C21.958 16.7367 22.5363 17.3337 23.2497 17.3337Z" fill="white"/>
<path d="M16.7913 5.33301C21.6625 5.33301 24.0982 5.33301 25.6114 6.8951C26.6553 7.97267 26.9791 9.50327 27.0795 11.9997M12.9163 26.6663H16.7913C21.6625 26.6663 24.0982 26.6663 25.6114 25.1042C26.6553 24.0267 26.9791 22.4961 27.0795 19.9997M11.6247 5.33425C7.60204 5.34639 5.46946 5.47765 4.09629 6.8951C2.58301 8.45721 2.58301 10.9714 2.58301 15.9997C2.58301 21.0279 2.58301 23.5422 4.09629 25.1042C4.93998 25.9751 6.07037 26.3605 7.74967 26.531" stroke="white" stroke-width="3.75" stroke-linecap="round"/>
</svg>
