<svg width="12" height="12" viewBox="0 0 12 12" fill="none" xmlns="http://www.w3.org/2000/svg">
<g opacity="0.72">
<path d="M2.5 10.5C2.225 10.5 1.98958 10.4021 1.79375 10.2063C1.59792 10.0104 1.5 9.775 1.5 9.5V2.5C1.5 2.225 1.59792 1.98958 1.79375 1.79375C1.98958 1.59792 2.225 1.5 2.5 1.5H9.5C9.775 1.5 10.0104 1.59792 10.2062 1.79375C10.4021 1.98958 10.5 2.225 10.5 2.5H6.5C5.90833 2.5 5.42708 2.68542 5.05625 3.05625C4.68542 3.42708 4.5 3.90833 4.5 4.5V7.5C4.5 8.09167 4.68542 8.57292 5.05625 8.94375C5.42708 9.31458 5.90833 9.5 6.5 9.5H10.5C10.5 9.775 10.4021 10.0104 10.2062 10.2063C10.0104 10.4021 9.775 10.5 9.5 10.5H2.5ZM6.5 8.5C6.225 8.5 5.98958 8.40208 5.79375 8.20625C5.59792 8.01042 5.5 7.775 5.5 7.5V4.5C5.5 4.225 5.59792 3.98958 5.79375 3.79375C5.98958 3.59792 6.225 3.5 6.5 3.5H10C10.275 3.5 10.5104 3.59792 10.7062 3.79375C10.9021 3.98958 11 4.225 11 4.5V7.5C11 7.775 10.9021 8.01042 10.7062 8.20625C10.5104 8.40208 10.275 8.5 10 8.5H6.5ZM8 6.75C8.21667 6.75 8.39583 6.67917 8.5375 6.5375C8.67917 6.39583 8.75 6.21667 8.75 6C8.75 5.78333 8.67917 5.60417 8.5375 5.4625C8.39583 5.32083 8.21667 5.25 8 5.25C7.78333 5.25 7.60417 5.32083 7.4625 5.4625C7.32083 5.60417 7.25 5.78333 7.25 6C7.25 6.21667 7.32083 6.39583 7.4625 6.5375C7.60417 6.67917 7.78333 6.75 8 6.75Z" fill="#0036AE"/>
</g>
</svg>
